<?xml version="1.0" encoding="iso-8859-1"?>
<!-- Uploaded to: SVG Repo, www.svgrepo.com, Generator: SVG Repo Mixer Tools -->
<svg height="800px" width="800px" version="1.1" id="Layer_1" xmlns="http://www.w3.org/2000/svg" xmlns:xlink="http://www.w3.org/1999/xlink" 
	 viewBox="0 0 509.82 509.82" xml:space="preserve">
<g>
	<path style="fill:#ECF0F1;" d="M336.17,167.724c0,92.637-75.096,167.724-167.724,167.724c-92.637,0-167.724-75.087-167.724-167.724
		S75.809,0,168.446,0C261.074,0,336.17,75.087,336.17,167.724"/>
	<path style="fill:#556080;" d="M498.756,499.478L498.756,499.478c-13.789,13.789-36.149,13.789-49.929,0L337.679,386.9
		l49.938-49.938L498.756,449.54C512.545,463.329,512.545,485.689,498.756,499.478"/>
	<path style="fill:#8697CB;" d="M298.826,273.133c-7.424,9.181-15.793,17.54-24.973,24.973l76.315,76.306l24.973-24.964
		L298.826,273.133z"/>
	<path style="fill:#894B9D;" d="M256.662,310.181c13.091-8.121,24.947-17.982,35.31-29.281V132.411h-35.31V310.181z"/>
	<path style="fill:#E57E25;" d="M186.041,334.513c12.226-1.271,24.011-3.955,35.31-7.715V176.552h-35.31V334.513z"/>
	<path style="fill:#F0C419;" d="M115.42,326.754c11.299,3.769,23.084,6.453,35.31,7.742V220.691h-35.31V326.754z"/>
	<path style="fill:#C03A2B;" d="M44.8,280.768c10.355,11.326,22.219,21.195,35.31,29.343V114.756H44.8V280.768z"/>
</g>
</svg>